<svg xmlns="http://www.w3.org/2000/svg" xmlns:svg="http://www.w3.org/2000/svg" id="svg2" width="564.571" height="164.571" version="1.1" viewBox="0 0 529.286 154.286"><metadata id="metadata7"/><g id="layer1" transform="translate(-316.42856,-603.17212)"><g style="font-style:normal;font-weight:400;line-height:0%;font-family:sans-serif;letter-spacing:0;word-spacing:0;fill:#000;fill-opacity:1;stroke:none;stroke-width:1px;stroke-linecap:butt;stroke-linejoin:miter;stroke-opacity:1" id="text4136" aria-label="VIGONOTION"><path style="font-style:normal;font-variant:normal;font-weight:700;font-stretch:normal;font-family:Raleway;-inkscape-font-specification:'Raleway Bold'" id="path14" d="m 443.24856,659.01499 11.52,32.22 11.4,-32.22 h 8.7 l -16.62,42.6 h -6.96 l -16.74,-42.6 z"/><path style="font-style:normal;font-variant:normal;font-weight:700;font-stretch:normal;font-family:Raleway;-inkscape-font-specification:'Raleway Bold'" id="path16" d="m 479.41543,701.61499 v -42.6 h 8.28 v 42.6 z"/><path style="font-style:normal;font-variant:normal;font-weight:700;font-stretch:normal;font-family:Raleway;-inkscape-font-specification:'Raleway Bold'" id="path18" d="m 526.10481,696.81499 q -5.1,5.1 -11.88,5.1 -4.2,0 -7.92,-1.68 -3.66,-1.68 -6.42,-4.62 -2.7,-2.94 -4.32,-6.9 -1.56,-4.02 -1.56,-8.64 0,-4.38 1.56,-8.22 1.62,-3.9 4.38,-6.78 2.82,-2.94 6.6,-4.62 3.78,-1.74 8.22,-1.74 6,0 10.26,2.52 4.32,2.52 6.48,6.78 l -6.18,4.56 q -1.62,-3.18 -4.56,-4.86 -2.88,-1.68 -6.3,-1.68 -2.7,0 -4.98,1.14 -2.22,1.14 -3.84,3.12 -1.56,1.98 -2.46,4.56 -0.84,2.58 -0.84,5.46 0,3 0.96,5.64 0.96,2.58 2.64,4.5 1.68,1.92 3.96,3.06 2.34,1.08 5.04,1.08 6.18,0 11.16,-5.82 v -3 h -8.58 v -6.06 h 15.42 v 21.9 h -6.84 z"/><path style="font-style:normal;font-variant:normal;font-weight:700;font-stretch:normal;font-family:Raleway;-inkscape-font-specification:'Raleway Bold'" id="path20" d="m 558.18137,701.91499 q -4.68,0 -8.52,-1.8 -3.78,-1.86 -6.54,-4.86 -2.7,-3.06 -4.2,-6.96 -1.5,-3.9 -1.5,-7.98 0,-4.26 1.56,-8.16 1.62,-3.9 4.38,-6.9 2.82,-3 6.66,-4.74 3.84,-1.8 8.34,-1.8 4.62,0 8.4,1.92 3.84,1.86 6.54,4.92 2.7,3.06 4.2,6.96 1.5,3.9 1.5,7.92 0,4.26 -1.56,8.16 -1.56,3.84 -4.32,6.84 -2.76,2.94 -6.6,4.74 -3.84,1.74 -8.34,1.74 z m -12.36,-21.6 q 0,2.76 0.84,5.34 0.84,2.58 2.4,4.56 1.62,1.98 3.9,3.18 2.34,1.2 5.28,1.2 3,0 5.28,-1.2 2.34,-1.26 3.9,-3.3 1.62,-2.04 2.4,-4.56 0.84,-2.58 0.84,-5.22 0,-2.76 -0.9,-5.34 -0.84,-2.58 -2.46,-4.56 -1.56,-1.98 -3.9,-3.12 -2.28,-1.2 -5.16,-1.2 -3,0 -5.34,1.26 -2.34,1.2 -3.9,3.24 -1.56,1.98 -2.4,4.56 -0.78,2.52 -0.78,5.16 z"/><path style="font-style:normal;font-variant:normal;font-weight:400;font-stretch:normal;font-size:60px;line-height:1.25;font-family:Raleway;-inkscape-font-specification:Raleway" id="path22" d="m 590.45293,666.81499 v 34.8 h -4.2 v -42.6 h 3.24 l 28.2,35.46 v -35.4 h 4.2 v 42.54 h -3.66 z"/><path style="font-style:normal;font-variant:normal;font-weight:400;font-stretch:normal;font-size:60px;line-height:1.25;font-family:Raleway;-inkscape-font-specification:Raleway" id="path24" d="m 649.702,701.91499 q -4.44,0 -8.16,-1.8 -3.66,-1.86 -6.3,-4.86 -2.64,-3.06 -4.08,-6.96 -1.44,-3.9 -1.44,-7.98 0,-4.26 1.5,-8.16 1.56,-3.9 4.26,-6.9 2.7,-3 6.36,-4.74 3.66,-1.8 7.92,-1.8 4.44,0 8.1,1.92 3.72,1.86 6.3,4.92 2.64,3.06 4.08,6.96 1.44,3.84 1.44,7.86 0,4.26 -1.56,8.16 -1.5,3.9 -4.2,6.9 -2.64,2.94 -6.3,4.74 -3.66,1.74 -7.92,1.74 z m -15.78,-21.6 q 0,3.48 1.14,6.72 1.14,3.18 3.24,5.7 2.1,2.46 4.98,3.96 2.88,1.44 6.42,1.44 3.6,0 6.54,-1.56 2.94,-1.56 4.98,-4.08 2.04,-2.52 3.12,-5.7 1.14,-3.18 1.14,-6.48 0,-3.48 -1.2,-6.66 -1.14,-3.24 -3.24,-5.7 -2.1,-2.46 -4.98,-3.9 -2.88,-1.5 -6.36,-1.5 -3.6,0 -6.54,1.56 -2.94,1.5 -4.98,4.02 -2.04,2.52 -3.18,5.7 -1.08,3.18 -1.08,6.48 z"/><path style="font-style:normal;font-variant:normal;font-weight:400;font-stretch:normal;font-size:60px;line-height:1.25;font-family:Raleway;-inkscape-font-specification:Raleway" id="path26" d="m 705.907,662.73499 h -15.18 v 38.88 h -4.2 v -38.88 h -15.18 v -3.72 h 34.56 z"/><path style="font-style:normal;font-variant:normal;font-weight:400;font-stretch:normal;font-size:60px;line-height:1.25;font-family:Raleway;-inkscape-font-specification:Raleway" id="path28" d="m 712.2295,701.61499 v -42.6 h 4.2 v 42.6 z"/><path style="font-style:normal;font-variant:normal;font-weight:400;font-stretch:normal;font-size:60px;line-height:1.25;font-family:Raleway;-inkscape-font-specification:Raleway" id="path30" d="m 744.27231,701.91499 q -4.44,0 -8.16,-1.8 -3.66,-1.86 -6.3,-4.86 -2.64,-3.06 -4.08,-6.96 -1.44,-3.9 -1.44,-7.98 0,-4.26 1.5,-8.16 1.56,-3.9 4.26,-6.9 2.7,-3 6.36,-4.74 3.66,-1.8 7.92,-1.8 4.44,0 8.1,1.92 3.72,1.86 6.3,4.92 2.64,3.06 4.08,6.96 1.44,3.84 1.44,7.86 0,4.26 -1.56,8.16 -1.5,3.9 -4.2,6.9 -2.64,2.94 -6.3,4.74 -3.66,1.74 -7.92,1.74 z m -15.78,-21.6 q 0,3.48 1.14,6.72 1.14,3.18 3.24,5.7 2.1,2.46 4.98,3.96 2.88,1.44 6.42,1.44 3.6,0 6.54,-1.56 2.94,-1.56 4.98,-4.08 2.04,-2.52 3.12,-5.7 1.14,-3.18 1.14,-6.48 0,-3.48 -1.2,-6.66 -1.14,-3.24 -3.24,-5.7 -2.1,-2.46 -4.98,-3.9 -2.88,-1.5 -6.36,-1.5 -3.6,0 -6.54,1.56 -2.94,1.5 -4.98,4.02 -2.04,2.52 -3.18,5.7 -1.08,3.18 -1.08,6.48 z"/><path style="font-style:normal;font-variant:normal;font-weight:400;font-stretch:normal;font-size:60px;line-height:1.25;font-family:Raleway;-inkscape-font-specification:Raleway" id="path32" d="m 776.4295,666.81499 v 34.8 h -4.2 v -42.6 h 3.24 l 28.2,35.46 v -35.4 h 4.2 v 42.54 h -3.66 z"/></g><rect style="fill:none;stroke:#000;stroke-width:10;stroke-linecap:round;stroke-linejoin:miter;stroke-miterlimit:4;stroke-dasharray:none" id="rect4208" width="519.286" height="144.286" x="321.429" y="608.172" ry="0"/><g id="layer1-2" transform="matrix(0.42559524,0,0,0.42559524,378.33333,680.31496)"><path style="fill:#000;fill-rule:evenodd;stroke:none;stroke-width:5px;stroke-linecap:butt;stroke-linejoin:miter;stroke-opacity:1" id="path4786" d="M 74.409446,-120 44.587926,-16 80,-16 5.5905537,120 35.412074,16 0,16 Z"/><path style="fill:#000;fill-rule:evenodd;stroke:none;stroke-width:5px;stroke-linecap:butt;stroke-linejoin:miter;stroke-opacity:1" id="path4172" d="M -5.5905537,120 -35.412074,16 0,16 -74.409446,-120 -44.587926,-16 -80,-16 Z"/></g></g></svg>